<svg width="20" height="20" viewBox="0 0 20 20" fill="none" xmlns="http://www.w3.org/2000/svg">
<path d="M14.8358 10.1133C14.7778 10.054 14.7086 10.0068 14.6322 9.97455C14.5558 9.94228 14.4737 9.92555 14.3908 9.92533C14.3078 9.9251 14.2257 9.94139 14.1491 9.97323C14.0725 10.0051 14.003 10.0519 13.9447 10.1108C13.8864 10.1698 13.8404 10.2398 13.8094 10.3167C13.7784 10.3937 13.763 10.476 13.7641 10.5589C13.7653 10.6419 13.7829 10.7237 13.816 10.7998C13.8491 10.8758 13.897 10.9445 13.957 11.0019C14.4872 11.5237 14.9079 12.1461 15.1944 12.8327C15.4808 13.5192 15.6272 14.2561 15.625 15C15.625 15.7644 13.4338 16.875 10 16.875C6.56622 16.875 4.37503 15.7639 4.37503 14.9988C4.37293 14.2599 4.51739 13.5281 4.80005 12.8455C5.08272 12.1629 5.49797 11.5431 6.02178 11.0221C6.08102 10.9643 6.12821 10.8954 6.1606 10.8192C6.19299 10.7431 6.20994 10.6613 6.21046 10.5785C6.21099 10.4958 6.19508 10.4138 6.16365 10.3372C6.13223 10.2607 6.08592 10.1911 6.02742 10.1326C5.96891 10.0741 5.89936 10.0278 5.82282 9.99638C5.74628 9.96496 5.66425 9.94905 5.58151 9.94957C5.49877 9.9501 5.41696 9.96704 5.34082 9.99943C5.26468 10.0318 5.19573 10.079 5.13797 10.1383C4.49761 10.7752 3.98997 11.5329 3.64444 12.3675C3.29892 13.202 3.12237 14.0968 3.12503 15C3.12503 17.0298 6.6669 18.125 10 18.125C13.3332 18.125 16.875 17.0298 16.875 15C16.8778 14.0907 16.6989 13.19 16.3487 12.3508C15.9985 11.5116 15.4841 10.7509 14.8358 10.1133Z" fill="white"/>
<path d="M10 10.625C10.8653 10.625 11.7112 10.3684 12.4306 9.88768C13.1501 9.40695 13.7108 8.72367 14.042 7.92424C14.3731 7.12482 14.4597 6.24515 14.2909 5.39648C14.1221 4.54781 13.7054 3.76826 13.0936 3.15641C12.4817 2.54456 11.7022 2.12788 10.8535 1.95907C10.0049 1.79026 9.12519 1.8769 8.32576 2.20803C7.52633 2.53916 6.84305 3.09992 6.36232 3.81938C5.88159 4.53885 5.625 5.38471 5.625 6.25C5.62634 7.40991 6.08771 8.52193 6.90789 9.34211C7.72807 10.1623 8.84009 10.6237 10 10.625ZM10 3.125C10.6181 3.125 11.2223 3.30828 11.7362 3.65166C12.2501 3.99504 12.6506 4.4831 12.8871 5.05412C13.1236 5.62514 13.1855 6.25347 13.065 6.85966C12.9444 7.46585 12.6467 8.02267 12.2097 8.45971C11.7727 8.89675 11.2158 9.19438 10.6097 9.31496C10.0035 9.43553 9.37513 9.37365 8.80411 9.13713C8.2331 8.9006 7.74504 8.50006 7.40166 7.98616C7.05828 7.47226 6.875 6.86807 6.875 6.25C6.87598 5.4215 7.20553 4.62721 7.79137 4.04137C8.37721 3.45553 9.1715 3.12598 10 3.125Z" fill="white"/>
</svg>
