<svg width="20" height="20" viewBox="0 0 20 20" fill="none" xmlns="http://www.w3.org/2000/svg">
<path d="M6.66663 4.79166C6.32496 4.79166 6.04163 4.50832 6.04163 4.16666V1.66666C6.04163 1.32499 6.32496 1.04166 6.66663 1.04166C7.00829 1.04166 7.29163 1.32499 7.29163 1.66666V4.16666C7.29163 4.50832 7.00829 4.79166 6.66663 4.79166Z" fill="#333333"/>
<path d="M13.3334 4.79166C12.9917 4.79166 12.7084 4.50832 12.7084 4.16666V1.66666C12.7084 1.32499 12.9917 1.04166 13.3334 1.04166C13.675 1.04166 13.9584 1.32499 13.9584 1.66666V4.16666C13.9584 4.50832 13.675 4.79166 13.3334 4.79166Z" fill="#333333"/>
<path d="M7.08333 12.0834C6.975 12.0834 6.86667 12.0584 6.76667 12.0167C6.65833 11.9751 6.575 11.9167 6.49167 11.8417C6.34167 11.6834 6.25 11.4751 6.25 11.2501C6.25 11.1417 6.275 11.0334 6.31667 10.9334C6.35833 10.8334 6.41667 10.7417 6.49167 10.6584C6.575 10.5834 6.65833 10.5251 6.76667 10.4834C7.06667 10.3584 7.44167 10.4251 7.675 10.6584C7.825 10.8167 7.91667 11.0334 7.91667 11.2501C7.91667 11.3001 7.90833 11.3584 7.9 11.4167C7.89167 11.4667 7.875 11.5167 7.85 11.5667C7.83333 11.6167 7.80833 11.6667 7.775 11.7167C7.75 11.7584 7.70833 11.8001 7.675 11.8417C7.51667 11.9917 7.3 12.0834 7.08333 12.0834Z" fill="#333333"/>
<path d="M9.99996 12.0833C9.89163 12.0833 9.78329 12.0583 9.68329 12.0166C9.57496 11.9749 9.49163 11.9166 9.40829 11.8416C9.25829 11.6833 9.16663 11.4749 9.16663 11.2499C9.16663 11.1416 9.19163 11.0333 9.23329 10.9333C9.27496 10.8333 9.33329 10.7416 9.40829 10.6583C9.49163 10.5833 9.57496 10.5249 9.68329 10.4833C9.98329 10.3499 10.3583 10.4249 10.5916 10.6583C10.7416 10.8166 10.8333 11.0333 10.8333 11.2499C10.8333 11.2999 10.825 11.3583 10.8166 11.4166C10.8083 11.4666 10.7916 11.5166 10.7666 11.5666C10.75 11.6166 10.725 11.6666 10.6916 11.7166C10.6666 11.7583 10.625 11.7999 10.5916 11.8416C10.4333 11.9916 10.2166 12.0833 9.99996 12.0833Z" fill="#333333"/>
<path d="M12.9167 12.0833C12.8084 12.0833 12.7 12.0583 12.6 12.0166C12.4917 11.9749 12.4084 11.9166 12.325 11.8416C12.2917 11.7999 12.2584 11.7583 12.225 11.7166C12.1917 11.6666 12.1667 11.6166 12.15 11.5666C12.125 11.5166 12.1084 11.4666 12.1 11.4166C12.0917 11.3583 12.0834 11.2999 12.0834 11.2499C12.0834 11.0333 12.175 10.8166 12.325 10.6583C12.4084 10.5833 12.4917 10.5249 12.6 10.4833C12.9084 10.3499 13.275 10.4249 13.5084 10.6583C13.6584 10.8166 13.75 11.0333 13.75 11.2499C13.75 11.2999 13.7417 11.3583 13.7334 11.4166C13.725 11.4666 13.7084 11.5166 13.6834 11.5666C13.6667 11.6166 13.6417 11.6666 13.6084 11.7166C13.5834 11.7583 13.5417 11.7999 13.5084 11.8416C13.35 11.9916 13.1334 12.0833 12.9167 12.0833Z" fill="#333333"/>
<path d="M7.08333 14.9999C6.975 14.9999 6.86667 14.975 6.76667 14.9333C6.66667 14.8917 6.575 14.8332 6.49167 14.7582C6.34167 14.5999 6.25 14.3832 6.25 14.1666C6.25 14.0582 6.275 13.9499 6.31667 13.8499C6.35833 13.7416 6.41667 13.65 6.49167 13.575C6.8 13.2667 7.36667 13.2667 7.675 13.575C7.825 13.7333 7.91667 13.9499 7.91667 14.1666C7.91667 14.3832 7.825 14.5999 7.675 14.7582C7.51667 14.9082 7.3 14.9999 7.08333 14.9999Z" fill="#333333"/>
<path d="M9.99996 14.9999C9.78329 14.9999 9.56663 14.9082 9.40829 14.7582C9.25829 14.5999 9.16663 14.3832 9.16663 14.1666C9.16663 14.0582 9.19163 13.9499 9.23329 13.8499C9.27496 13.7416 9.33329 13.65 9.40829 13.575C9.71663 13.2667 10.2833 13.2667 10.5916 13.575C10.6666 13.65 10.725 13.7416 10.7666 13.8499C10.8083 13.9499 10.8333 14.0582 10.8333 14.1666C10.8333 14.3832 10.7416 14.5999 10.5916 14.7582C10.4333 14.9082 10.2166 14.9999 9.99996 14.9999Z" fill="#333333"/>
<path d="M12.9167 14.9999C12.7 14.9999 12.4834 14.9083 12.325 14.7583C12.25 14.6833 12.1917 14.5916 12.15 14.4833C12.1084 14.3833 12.0834 14.2749 12.0834 14.1666C12.0834 14.0583 12.1084 13.9499 12.15 13.8499C12.1917 13.7416 12.25 13.6499 12.325 13.5749C12.5167 13.3833 12.8084 13.2916 13.075 13.3499C13.1334 13.3583 13.1834 13.3749 13.2334 13.3999C13.2834 13.4166 13.3334 13.4416 13.3834 13.4749C13.425 13.4999 13.4667 13.5416 13.5084 13.5749C13.6584 13.7333 13.75 13.9499 13.75 14.1666C13.75 14.3833 13.6584 14.5999 13.5084 14.7583C13.35 14.9083 13.1334 14.9999 12.9167 14.9999Z" fill="#333333"/>
<path d="M17.0833 8.19986H2.91663C2.57496 8.19986 2.29163 7.91653 2.29163 7.57486C2.29163 7.23319 2.57496 6.94986 2.91663 6.94986H17.0833C17.425 6.94986 17.7083 7.23319 17.7083 7.57486C17.7083 7.91653 17.425 8.19986 17.0833 8.19986Z" fill="#333333"/>
<path d="M13.3333 18.9583H6.66667C3.625 18.9583 1.875 17.2083 1.875 14.1667V7.08332C1.875 4.04166 3.625 2.29166 6.66667 2.29166H13.3333C16.375 2.29166 18.125 4.04166 18.125 7.08332V14.1667C18.125 17.2083 16.375 18.9583 13.3333 18.9583ZM6.66667 3.54166C4.28333 3.54166 3.125 4.69999 3.125 7.08332V14.1667C3.125 16.55 4.28333 17.7083 6.66667 17.7083H13.3333C15.7167 17.7083 16.875 16.55 16.875 14.1667V7.08332C16.875 4.69999 15.7167 3.54166 13.3333 3.54166H6.66667Z" fill="#333333"/>
</svg>
