<svg width="20" height="20" viewBox="0 0 20 20" fill="none" xmlns="http://www.w3.org/2000/svg">
<path d="M9.99991 17.6546C9.88627 17.6546 4.58342 17.6546 4.58342 17.6546C4.24084 17.6546 3.95522 17.4945 3.81932 17.2262C3.68346 16.958 3.72338 16.6329 3.92612 16.3567L4.60686 15.4319C3.16346 13.9984 2.34534 12.0478 2.34534 10C2.34534 5.77922 5.77917 2.34535 9.99991 2.34535C14.2208 2.34535 17.6546 5.77922 17.6546 10C17.6546 14.2208 14.2208 17.6546 9.99991 17.6546ZM9.99991 16.4828C13.5746 16.4828 16.4828 13.5746 16.4828 10C16.4828 6.42539 13.5746 3.51723 9.99991 3.51723C6.42534 3.51723 3.51721 6.42539 3.51721 10C3.51721 11.8885 4.33885 13.6795 5.77147 14.9139L6.18256 15.2681L5.28842 16.4828H9.99991Z" fill="white"/>
<path d="M7.9593 10C7.9593 10.4504 7.59422 10.8156 7.14379 10.8156C6.69328 10.8156 6.32812 10.4504 6.32812 10C6.32812 9.5495 6.69328 9.18434 7.14379 9.18434C7.59422 9.18434 7.9593 9.54954 7.9593 10Z" fill="white"/>
<path d="M10.0003 10.8156C10.4507 10.8156 10.8158 10.4504 10.8158 10C10.8158 9.5496 10.4507 9.18446 10.0003 9.18446C9.54989 9.18446 9.18475 9.5496 9.18475 10C9.18475 10.4504 9.54989 10.8156 10.0003 10.8156Z" fill="white"/>
<path d="M12.857 10.8156C13.3074 10.8156 13.6726 10.4504 13.6726 10C13.6726 9.54957 13.3074 9.18442 12.857 9.18442C12.4065 9.18442 12.0414 9.54957 12.0414 10C12.0414 10.4504 12.4065 10.8156 12.857 10.8156Z" fill="white"/>
</svg>
