<svg width="20" height="20" viewBox="0 0 20 20" fill="none" xmlns="http://www.w3.org/2000/svg">
<path d="M9.99991 17.6546C9.88627 17.6546 4.58342 17.6546 4.58342 17.6546C4.24084 17.6546 3.95522 17.4945 3.81932 17.2262C3.68346 16.958 3.72338 16.6329 3.92612 16.3567L4.60686 15.4319C3.16346 13.9984 2.34534 12.0478 2.34534 9.99999C2.34534 5.7792 5.77917 2.34534 9.99991 2.34534C14.2208 2.34534 17.6546 5.7792 17.6546 9.99999C17.6546 14.2208 14.2208 17.6546 9.99991 17.6546ZM9.99991 16.4828C13.5746 16.4828 16.4828 13.5746 16.4828 9.99999C16.4828 6.42538 13.5746 3.51721 9.99991 3.51721C6.42534 3.51721 3.51721 6.42538 3.51721 9.99999C3.51721 11.8885 4.33885 13.6795 5.77147 14.9139L6.18256 15.2681L5.28842 16.4828H9.99991Z" fill="#333333"/>
<path d="M7.9593 9.99999C7.9593 10.4504 7.59422 10.8155 7.14379 10.8155C6.69328 10.8155 6.32812 10.4504 6.32812 9.99999C6.32812 9.54948 6.69328 9.18433 7.14379 9.18433C7.59422 9.18433 7.9593 9.54952 7.9593 9.99999Z" fill="#333333"/>
<path d="M10.0004 10.8155C10.4508 10.8155 10.8159 10.4504 10.8159 10C10.8159 9.54958 10.4508 9.18445 10.0004 9.18445C9.54995 9.18445 9.18481 9.54958 9.18481 10C9.18481 10.4504 9.54995 10.8155 10.0004 10.8155Z" fill="#333333"/>
<path d="M12.857 10.8156C13.3074 10.8156 13.6726 10.4504 13.6726 9.99997C13.6726 9.54954 13.3074 9.18439 12.857 9.18439C12.4065 9.18439 12.0414 9.54954 12.0414 9.99997C12.0414 10.4504 12.4065 10.8156 12.857 10.8156Z" fill="#333333"/>
</svg>
