<svg width="20" height="20" viewBox="0 0 20 20" fill="none" xmlns="http://www.w3.org/2000/svg">
<g clip-path="url(#clip0_660_263)">
<path d="M8.67189 19.3652C8.67144 19.3652 8.67086 19.3652 8.67029 19.3652C8.08355 19.3648 7.53183 19.1359 7.1171 18.7205L1.27558 12.8706C0.421162 12.0146 0.421162 10.6217 1.27558 9.76582L9.15003 1.87626C9.96153 1.06316 11.0413 0.615234 12.1903 0.615234H17.1862C18.3977 0.615234 19.3834 1.6008 19.3834 2.8125V7.79308C19.3834 8.94127 18.936 10.0206 18.1237 10.8319L10.2247 18.7226C9.80978 19.137 9.25829 19.3652 8.67189 19.3652ZM12.1903 2.08008C11.4331 2.08008 10.7216 2.37522 10.1869 2.91103L2.3123 10.8006C2.02745 11.086 2.02745 11.5502 2.3123 11.8356L8.15382 17.6855C8.29195 17.8238 8.47574 17.9003 8.67144 17.9004H8.67201C8.86747 17.9004 9.05127 17.8243 9.18951 17.6863L17.0885 9.79568C17.6238 9.26102 17.9186 8.54965 17.9186 7.79308V2.8125C17.9186 2.40864 17.59 2.08008 17.1862 2.08008H12.1903ZM14.0733 8.04932C12.8617 8.04932 11.876 7.06375 11.876 5.85205C11.876 4.64035 12.8617 3.65479 14.0733 3.65479C15.2849 3.65479 16.2705 4.64035 16.2705 5.85205C16.2705 7.06375 15.2849 8.04932 14.0733 8.04932ZM14.0733 5.11963C13.6694 5.11963 13.3409 5.44819 13.3409 5.85205C13.3409 6.25591 13.6694 6.58447 14.0733 6.58447C14.4773 6.58447 14.8057 6.25591 14.8057 5.85205C14.8057 5.44819 14.4773 5.11963 14.0733 5.11963Z" fill="#333333"/>
</g>
<defs>
<clipPath id="clip0_660_263">
<rect width="20" height="20" fill="white"/>
</clipPath>
</defs>
</svg>
