<svg width="83" height="18" viewBox="0 0 83 18" fill="none" xmlns="http://www.w3.org/2000/svg">
<path d="M7.71094 5V7.5H0.484375V5H7.71094ZM2.125 2.125H5.45313V13.3125C5.45313 13.6198 5.5 13.8594 5.59375 14.0312C5.6875 14.1979 5.81771 14.3151 5.98438 14.3828C6.15625 14.4505 6.35417 14.4844 6.57813 14.4844C6.73438 14.4844 6.89063 14.4714 7.04688 14.4453C7.20312 14.4141 7.32292 14.3906 7.40625 14.375L7.92969 16.8516C7.76302 16.9036 7.52865 16.9635 7.22656 17.0313C6.92448 17.1042 6.55729 17.1484 6.125 17.1641C5.32292 17.1953 4.61979 17.0885 4.01563 16.8437C3.41667 16.599 2.95052 16.2187 2.61719 15.7031C2.28385 15.1875 2.11979 14.5365 2.125 13.75V2.125ZM9.87891 17V5H13.1055V7.09375H13.2305C13.4492 6.34896 13.8164 5.78646 14.332 5.40625C14.8477 5.02083 15.4414 4.82812 16.1133 4.82812C16.2799 4.82812 16.4596 4.83854 16.6523 4.85937C16.8451 4.88021 17.0143 4.90885 17.1602 4.94531V7.89844C17.0039 7.85156 16.7878 7.8099 16.5117 7.77344C16.2357 7.73698 15.9831 7.71875 15.7539 7.71875C15.2643 7.71875 14.8268 7.82552 14.4414 8.03906C14.0612 8.2474 13.7591 8.53906 13.5352 8.91406C13.3164 9.28906 13.207 9.72135 13.207 10.2109V17H9.87891ZM21.959 17.2266C21.1934 17.2266 20.5111 17.0938 19.9121 16.8281C19.3132 16.5573 18.8392 16.1589 18.4902 15.6328C18.1465 15.1016 17.9746 14.4401 17.9746 13.6484C17.9746 12.9818 18.097 12.4219 18.3418 11.9687C18.5866 11.5156 18.9199 11.151 19.3418 10.875C19.7637 10.599 20.2428 10.3906 20.7793 10.25C21.321 10.1094 21.8887 10.0104 22.4824 9.95312C23.1803 9.88021 23.7428 9.8125 24.1699 9.75C24.597 9.68229 24.9069 9.58333 25.0996 9.45312C25.2923 9.32292 25.3887 9.13021 25.3887 8.875V8.82812C25.3887 8.33333 25.2324 7.95052 24.9199 7.67969C24.6126 7.40885 24.1751 7.27344 23.6074 7.27344C23.0085 7.27344 22.5319 7.40625 22.1777 7.67187C21.8236 7.93229 21.5892 8.26042 21.4746 8.65625L18.3965 8.40625C18.5527 7.67708 18.86 7.04687 19.3184 6.51562C19.7767 5.97917 20.3678 5.56771 21.0918 5.28125C21.821 4.98958 22.6647 4.84375 23.623 4.84375C24.2897 4.84375 24.9277 4.92187 25.5371 5.07812C26.1517 5.23437 26.696 5.47656 27.1699 5.80469C27.6491 6.13281 28.0267 6.55469 28.3027 7.07031C28.5788 7.58073 28.7168 8.19271 28.7168 8.90625V17H25.5605V15.3359H25.4668C25.2741 15.7109 25.0163 16.0417 24.6934 16.3281C24.3704 16.6094 23.9824 16.8307 23.5293 16.9922C23.0762 17.1484 22.5527 17.2266 21.959 17.2266ZM22.9121 14.9297C23.4017 14.9297 23.834 14.8333 24.209 14.6406C24.584 14.4427 24.8783 14.1771 25.0918 13.8438C25.3053 13.5104 25.4121 13.1328 25.4121 12.7109V11.4375C25.3079 11.5052 25.1647 11.5677 24.9824 11.625C24.8053 11.6771 24.6048 11.7266 24.3809 11.7734C24.1569 11.8151 23.9329 11.8542 23.709 11.8906C23.485 11.9219 23.2819 11.9505 23.0996 11.9766C22.709 12.0339 22.3678 12.125 22.0762 12.25C21.7845 12.375 21.5579 12.5443 21.3965 12.7578C21.235 12.9661 21.1543 13.2266 21.1543 13.5391C21.1543 13.9922 21.3184 14.3385 21.6465 14.5781C21.9798 14.8125 22.4017 14.9297 22.9121 14.9297ZM31.2988 17V5H34.627V17H31.2988ZM32.9707 3.45312C32.4759 3.45312 32.0514 3.28906 31.6973 2.96094C31.3483 2.6276 31.1738 2.22917 31.1738 1.76562C31.1738 1.30729 31.3483 0.914062 31.6973 0.585938C32.0514 0.252604 32.4759 0.0859367 32.9707 0.0859367C33.4655 0.0859367 33.8874 0.252604 34.2363 0.585938C34.5905 0.914062 34.7676 1.30729 34.7676 1.76562C34.7676 2.22917 34.5905 2.6276 34.2363 2.96094C33.8874 3.28906 33.4655 3.45312 32.9707 3.45312ZM40.6211 10.0625V17H37.293V5H40.4648V7.11719H40.6055C40.8711 6.41927 41.3164 5.86719 41.9414 5.46094C42.5664 5.04948 43.3242 4.84375 44.2148 4.84375C45.0482 4.84375 45.7747 5.02604 46.3945 5.39062C47.0143 5.75521 47.4961 6.27604 47.8398 6.95312C48.1836 7.625 48.3555 8.42708 48.3555 9.35937V17H45.0273V9.95312C45.0326 9.21875 44.8451 8.64583 44.4648 8.23438C44.0846 7.81771 43.5612 7.60937 42.8945 7.60937C42.4466 7.60937 42.0508 7.70573 41.707 7.89844C41.3685 8.09115 41.1029 8.3724 40.9102 8.74219C40.7227 9.10677 40.6263 9.54688 40.6211 10.0625ZM50.9785 17V5H54.1504V7.11719H54.291C54.541 6.41406 54.9577 5.85937 55.541 5.45312C56.1243 5.04687 56.8223 4.84375 57.6348 4.84375C58.4577 4.84375 59.1582 5.04948 59.7363 5.46094C60.3145 5.86719 60.6999 6.41927 60.8926 7.11719H61.0176C61.2624 6.42969 61.7051 5.88021 62.3457 5.46875C62.9915 5.05208 63.7546 4.84375 64.6348 4.84375C65.7546 4.84375 66.6634 5.20052 67.3613 5.91406C68.0645 6.6224 68.416 7.6276 68.416 8.92969V17H65.0957V9.58594C65.0957 8.91927 64.9186 8.41927 64.5645 8.08594C64.2103 7.7526 63.7676 7.58594 63.2363 7.58594C62.6322 7.58594 62.1608 7.77865 61.8223 8.16406C61.4837 8.54427 61.3145 9.04687 61.3145 9.67187V17H58.0879V9.51562C58.0879 8.92708 57.9186 8.45833 57.5801 8.10937C57.2467 7.76042 56.8066 7.58594 56.2598 7.58594C55.89 7.58594 55.5566 7.67969 55.2598 7.86719C54.9681 8.04948 54.7363 8.30729 54.5645 8.64062C54.3926 8.96875 54.3066 9.35417 54.3066 9.79687V17H50.9785ZM76.5137 17.2344C75.2793 17.2344 74.2168 16.9844 73.3262 16.4844C72.4408 15.9792 71.7585 15.2656 71.2793 14.3437C70.8001 13.4167 70.5605 12.3203 70.5605 11.0547C70.5605 9.82031 70.8001 8.73698 71.2793 7.80469C71.7585 6.8724 72.4329 6.14583 73.3027 5.625C74.1777 5.10417 75.2038 4.84375 76.3809 4.84375C77.1725 4.84375 77.9095 4.97135 78.5918 5.22656C79.2793 5.47656 79.8783 5.85417 80.3887 6.35937C80.9043 6.86458 81.3053 7.5 81.5918 8.26562C81.8783 9.02604 82.0215 9.91667 82.0215 10.9375V11.8516H71.8887V9.78906H78.8887C78.8887 9.3099 78.7845 8.88542 78.5762 8.51563C78.3678 8.14583 78.0788 7.85677 77.709 7.64844C77.3444 7.4349 76.9199 7.32812 76.4355 7.32812C75.9303 7.32812 75.4824 7.44531 75.0918 7.67969C74.7064 7.90885 74.4043 8.21875 74.1855 8.60937C73.9668 8.99479 73.8548 9.42448 73.8496 9.89844V11.8594C73.8496 12.4531 73.959 12.9661 74.1777 13.3984C74.4017 13.8307 74.7168 14.1641 75.123 14.3984C75.5293 14.6328 76.0111 14.75 76.5684 14.75C76.9382 14.75 77.2767 14.6979 77.584 14.5938C77.8913 14.4896 78.1543 14.3333 78.373 14.125C78.5918 13.9167 78.7585 13.6615 78.873 13.3594L81.9512 13.5625C81.7949 14.3021 81.4746 14.9479 80.9902 15.5C80.5111 16.0469 79.8913 16.474 79.1309 16.7813C78.3757 17.0833 77.5033 17.2344 76.5137 17.2344Z" fill="#89C5CC"/>
</svg>
